<?xml version="1.0" standalone="no"?>
<!DOCTYPE svg PUBLIC "-//W3C//DTD SVG 20010904//EN"
 "http://www.w3.org/TR/2001/REC-SVG-20010904/DTD/svg10.dtd">
<svg version="1.0" xmlns="http://www.w3.org/2000/svg"
 width="700.000000pt" height="700.000000pt" viewBox="0 0 700.000000 700.000000"
 preserveAspectRatio="xMidYMid meet">
<metadata>
Created by potrace 1.14, written by Peter Selinger 2001-2017
</metadata>
<g transform="translate(0.000000,700.000000) scale(0.100000,-0.100000)"
fill="#000000" stroke="none">
<path d="M0 3500 l0 -3500 3500 0 3500 0 0 3500 0 3500 -3500 0 -3500 0 0
-3500z m2455 1267 c170 -37 284 -97 378 -197 67 -71 115 -157 144 -261 25 -90
25 -356 0 -449 -63 -234 -220 -384 -472 -452 -72 -19 -112 -22 -392 -26 l-313
-4 0 -474 0 -474 -160 0 -160 0 0 1181 0 1181 453 -5 c358 -3 467 -8 522 -20z
m1473 -29 c11 -29 145 -386 297 -793 153 -407 280 -743 284 -747 3 -4 141 351
307 790 l300 797 237 3 237 2 0 -1180 0 -1180 -155 0 -155 0 -2 1026 -3 1027
-300 -799 -301 -799 -160 -3 -161 -2 -32 82 c-17 46 -154 409 -304 808 l-272
725 -3 -1032 -2 -1033 -155 0 -155 0 0 1180 0 1180 239 0 240 0 19 -52z"/>
<path d="M1800 4086 l0 -446 243 0 c318 0 389 17 494 113 88 81 124 177 124
333 0 217 -93 355 -279 415 -59 19 -96 22 -324 27 l-258 4 0 -446z"/>
</g>
</svg>
